<svg xmlns="http://www.w3.org/2000/svg" width="99" height="42" viewBox="0 0 99 42" fill="none">
<path fill-rule="evenodd" clip-rule="evenodd" d="M12.6275 1.86243C6.21272 10.7803 0.0621749 21.8394 0.000500722 30.1056C-0.0235198 33.2158 0.81525 35.931 2.82713 37.9875C5.72257 40.9494 8.91275 41.9938 12.0873 42C16.7265 42.0077 21.3333 39.792 24.9403 38.0836C31.0148 35.2078 98.1638 0.688132 98.1638 0.688132C98.8117 0.303872 98.6903 -0.174914 97.8794 0.0640962C97.5522 0.16093 24.7773 23.5078 24.7773 23.5078C23.3988 23.9693 21.9744 24.2107 20.5419 24.2256C14.949 24.2648 9.97225 20.5898 10.0125 12.8454C10.0281 9.81509 10.8117 6.16077 12.6275 1.86243Z" fill="#151515"/>
</svg>